<svg width="3028" height="751" xmlns="http://www.w3.org/2000/svg" xmlns:xlink="http://www.w3.org/1999/xlink" xml:space="preserve" overflow="hidden"><defs><filter id="fx0" x="-10%" y="-10%" width="120%" height="120%" filterUnits="userSpaceOnUse" primitiveUnits="userSpaceOnUse"><feComponentTransfer color-interpolation-filters="sRGB"><feFuncR type="discrete" tableValues="0 0"/><feFuncG type="discrete" tableValues="0 0"/><feFuncB type="discrete" tableValues="0 0"/><feFuncA type="linear" slope="0.631373" intercept="0"/></feComponentTransfer><feGaussianBlur stdDeviation="6.875 6.875"/></filter><clipPath id="clip1"><rect x="723" y="3274" width="3028" height="751"/></clipPath><clipPath id="clip2"><rect x="-3" y="-3" width="321" height="151"/></clipPath><clipPath id="clip3"><rect x="0" y="0" width="317" height="145"/></clipPath><linearGradient x1="2225.5" y1="3601" x2="2225.5" y2="3702" gradientUnits="userSpaceOnUse" spreadMethod="reflect" id="fill4"><stop offset="0" stop-color="#AFAFAF"/><stop offset="0.5" stop-color="#A5A5A5"/><stop offset="1" stop-color="#929292"/></linearGradient><linearGradient x1="747.458" y1="3575.27" x2="916.19" y2="3620.49" gradientUnits="userSpaceOnUse" spreadMethod="reflect" id="fill5"><stop offset="0" stop-color="#FFFFFF"/><stop offset="0.25" stop-color="#E2F0D9"/><stop offset="1" stop-color="#70AD47"/></linearGradient><linearGradient x1="1106.56" y1="3522.55" x2="953.627" y2="3610.85" gradientUnits="userSpaceOnUse" spreadMethod="reflect" id="fill6"><stop offset="0" stop-color="#FFFFFF"/><stop offset="0.28" stop-color="#FFF2CC"/><stop offset="1" stop-color="#FFC000"/></linearGradient><linearGradient x1="978.512" y1="3708.55" x2="1134.77" y2="3786" gradientUnits="userSpaceOnUse" spreadMethod="reflect" id="fill7"><stop offset="0" stop-color="#FFFFFF"/><stop offset="0.26" stop-color="#DAE3F3"/><stop offset="1" stop-color="#4472C4"/></linearGradient><linearGradient x1="3598.31" y1="3735.31" x2="3728.73" y2="3810.61" gradientUnits="userSpaceOnUse" spreadMethod="reflect" id="fill8"><stop offset="0" stop-color="#FFFFFF"/><stop offset="0.43" stop-color="#C7D5EE"/><stop offset="1" stop-color="#8FAADC"/></linearGradient><linearGradient x1="3728.17" y1="3776.4" x2="3605.04" y2="3847.49" gradientUnits="userSpaceOnUse" spreadMethod="reflect" id="fill9"><stop offset="0" stop-color="#B4C7E7"/><stop offset="0.37" stop-color="#7194D3"/><stop offset="1" stop-color="#2F5597"/></linearGradient><linearGradient x1="3370.21" y1="3591.17" x2="3495.8" y2="3624.82" gradientUnits="userSpaceOnUse" spreadMethod="reflect" id="fill10"><stop offset="0" stop-color="#FFFFFF"/><stop offset="0.48" stop-color="#E2F0D9"/><stop offset="1" stop-color="#A9D18E"/></linearGradient><linearGradient x1="3480.21" y1="3588.42" x2="3409.12" y2="3711.55" gradientUnits="userSpaceOnUse" spreadMethod="reflect" id="fill11"><stop offset="0" stop-color="#C5E0B4"/><stop offset="0.22" stop-color="#C5E0B4"/><stop offset="1" stop-color="#659C40"/></linearGradient><linearGradient x1="-1.05034e-14" y1="35.2734" x2="130.022" y2="35.2734" gradientUnits="userSpaceOnUse" spreadMethod="reflect" id="fill12"><stop offset="0" stop-color="#FFFFFF"/><stop offset="0.48" stop-color="#FFF2CC"/><stop offset="1" stop-color="#FFE699"/></linearGradient><linearGradient x1="0" y1="35.2734" x2="142.18" y2="35.2734" gradientUnits="userSpaceOnUse" spreadMethod="reflect" id="fill13"><stop offset="0" stop-color="#FFF2CC"/><stop offset="0.37" stop-color="#FFE699"/><stop offset="1" stop-color="#E5AD00"/></linearGradient></defs><g clip-path="url(#clip1)" transform="translate(-723 -3274)"><rect x="1308" y="3367" width="1866" height="658" fill="#F0F0F0"/><text font-family="Calibri,Calibri_MSFontService,sans-serif" font-weight="400" font-size="64" transform="matrix(1 0 0 1 1207.38 3742)">Encode</text><g clip-path="url(#clip2)" filter="url(#fx0)" transform="translate(2067 3586)"><g clip-path="url(#clip3)"><path d="M22 43.5427 224.72 43.5427 224.72 21.8752 295 72.3752 224.72 122.875 224.72 101.207 22 101.207Z" fill="#FF0000" fill-rule="evenodd"/></g></g><path d="M2089 3622.67 2291.72 3622.67 2291.72 3601 2362 3651.5 2291.72 3702 2291.72 3680.33 2089 3680.33Z" fill="url(#fill4)" fill-rule="evenodd"/><path d="M747.458 3575.27C752.5 3556.46 771.842 3545.29 790.659 3550.33L891.248 3577.29C910.066 3582.33 921.232 3601.67 916.19 3620.49L916.19 3620.49C911.148 3639.3 891.807 3650.47 872.99 3645.43L772.4 3618.48C753.583 3613.43 742.416 3594.09 747.458 3575.27Z" fill="url(#fill5)" fill-rule="evenodd"/><path d="M858.863 3587.51C872.357 3574.01 894.234 3574.01 907.727 3587.51 921.22 3601 921.22 3622.88 907.727 3636.37 894.234 3649.86 872.357 3649.86 858.863 3636.37 845.37 3622.88 845.37 3601 858.863 3587.51Z" fill="#70AD47" fill-rule="evenodd"/><rect x="739.5" y="3471.5" width="429" height="429" stroke="#D2E7F5" stroke-width="22.9167" stroke-miterlimit="8" fill="none"/><path d="M1106.56 3522.55C1116.31 3539.42 1110.52 3560.99 1093.65 3570.73L1001.81 3623.76C984.941 3633.5 963.368 3627.72 953.627 3610.85L953.627 3610.85C943.887 3593.98 949.667 3572.4 966.538 3562.66L1058.38 3509.64C1075.25 3499.9 1096.82 3505.68 1106.56 3522.55Z" fill="url(#fill6)" fill-rule="evenodd"/><path d="M1017 3593.5C1017 3612.55 1001.55 3628 982.5 3628 963.446 3628 948 3612.55 948 3593.5 948 3574.45 963.446 3559 982.5 3559 1001.55 3559 1017 3574.45 1017 3593.5Z" fill="#FFC000" fill-rule="evenodd"/><path d="M978.512 3708.55C987.164 3691.1 1008.33 3683.96 1025.78 3692.61L1118.83 3738.73C1136.29 3747.39 1143.42 3768.55 1134.77 3786L1134.77 3786C1126.12 3803.46 1104.96 3810.59 1087.5 3801.94L994.451 3755.82C976.996 3747.17 969.86 3726.01 978.512 3708.55Z" fill="url(#fill7)" fill-rule="evenodd"/><path d="M1085.07 3742.37C1100.95 3731.8 1122.4 3736.12 1132.97 3752 1143.54 3767.89 1139.23 3789.34 1123.34 3799.91 1107.45 3810.48 1086.01 3806.17 1075.44 3790.28 1064.87 3774.39 1069.18 3752.94 1085.07 3742.37Z" fill="#4472C4" fill-rule="evenodd"/><path d="M3598.31 3735.31C3608.05 3718.44 3629.62 3712.66 3646.49 3722.4L3715.82 3762.43C3732.69 3772.17 3738.47 3793.74 3728.73 3810.61L3728.73 3810.61C3718.99 3827.48 3697.42 3833.26 3680.55 3823.52L3611.22 3783.5C3594.35 3773.75 3588.57 3752.18 3598.31 3735.31Z" fill="url(#fill8)" fill-rule="evenodd"/><path d="M3728.17 3776.4C3737.91 3793.27 3732.13 3814.85 3715.26 3824.59L3653.23 3860.4C3636.35 3870.14 3614.78 3864.36 3605.04 3847.49L3605.04 3847.49C3595.3 3830.62 3601.08 3809.05 3617.95 3799.31L3679.99 3763.49C3696.86 3753.75 3718.43 3759.53 3728.17 3776.4Z" fill="url(#fill9)" fill-rule="evenodd"/><path d="M3600 3831C3600 3811.67 3615.45 3796 3634.5 3796 3653.55 3796 3669 3811.67 3669 3831 3669 3850.33 3653.55 3866 3634.5 3866 3615.45 3866 3600 3850.33 3600 3831Z" fill="#4472C4" fill-rule="evenodd"/><rect x="3310.5" y="3471.5" width="429" height="429" stroke="#D2E7F5" stroke-width="22.9167" stroke-miterlimit="8" fill="none"/><path d="M3370.21 3591.17C3375.25 3572.35 3394.6 3561.19 3413.41 3566.23L3470.86 3581.62C3489.68 3586.66 3500.85 3606 3495.8 3624.82L3495.8 3624.82C3490.76 3643.64 3471.42 3654.81 3452.6 3649.76L3395.15 3634.37C3376.34 3629.33 3365.17 3609.99 3370.21 3591.17Z" fill="url(#fill10)" fill-rule="evenodd"/><path d="M3480.21 3588.42C3497.09 3598.16 3502.87 3619.73 3493.13 3636.6L3457.31 3698.64C3447.57 3715.51 3426 3721.29 3409.12 3711.55L3409.12 3711.55C3392.25 3701.81 3386.47 3680.24 3396.21 3663.37L3432.03 3601.33C3441.77 3584.46 3463.34 3578.68 3480.21 3588.42Z" fill="url(#fill11)" fill-rule="evenodd"/><path d="M3396.39 3699.91C3386.84 3683.39 3392.51 3662.26 3409.03 3652.72 3425.56 3643.17 3446.69 3648.84 3456.23 3665.36 3465.77 3681.89 3460.11 3703.02 3443.58 3712.56 3427.06 3722.1 3405.93 3716.44 3396.39 3699.91Z" fill="#70AD47" fill-rule="evenodd"/><path d="M0 35.2734C-4.13839e-15 15.7925 15.7924-8.2768e-15 35.2734-8.2768e-15L94.7489 0C114.23-8.2768e-15 130.022 15.7925 130.022 35.2734L130.022 35.2734C130.022 54.7544 114.23 70.5469 94.7489 70.5469L35.2734 70.5469C15.7924 70.5469-8.27679e-15 54.7544-8.27679e-15 35.2734Z" fill="url(#fill12)" fill-rule="evenodd" transform="matrix(-0.818556 0.574427 0.574427 0.818556 3589.23 3505.92)"/><path d="M0 35.2734C0 15.7925 15.7924-9.05073e-15 35.2734-1.81015e-14L106.907 0C126.388-4.52536e-15 142.18 15.7925 142.18 35.2734L142.18 35.2734C142.18 54.7544 126.388 70.5469 106.907 70.5469L35.2734 70.5469C15.7924 70.5469 0 54.7544 0 35.2734Z" fill="url(#fill13)" fill-rule="evenodd" transform="matrix(0.984988 0.172625 0.172625 -0.984988 3487.57 3622.36)"/><path d="M0 34.552C-4.39893e-15 15.4695 15.4695-4.39893e-15 34.552-8.79787e-15 53.6346-1.75957e-14 69.104 15.4695 69.104 34.552 69.104 53.6346 53.6346 69.104 34.552 69.104 15.4695 69.104-2.19947e-14 53.6346 0 34.552Z" fill="#FFC000" fill-rule="evenodd" transform="matrix(-0.939337 0.342996 0.342996 0.939337 3621.11 3562.46)"/><path d="M1215.5 3663.78 1369.04 3663.78 1369.04 3667.22 1215.5 3667.22ZM1364.46 3651.75 1391.96 3665.5 1364.46 3679.25Z"/><text font-family="Calibri,Calibri_MSFontService,sans-serif" font-weight="400" font-size="64" transform="matrix(1 0 0 1 3083.85 3742)">Decode</text><path d="M3094.5 3663.78 3248.04 3663.78 3248.04 3667.22 3094.5 3667.22ZM3243.46 3651.75 3270.96 3665.5 3243.46 3679.25Z"/><text font-family="Calibri,Calibri_MSFontService,sans-serif" font-weight="400" font-size="64" transform="matrix(1 0 0 1 766.969 3856)">(a)</text><text font-family="Calibri,Calibri_MSFontService,sans-serif" font-weight="400" font-size="64" transform="matrix(1 0 0 1 1406.9 3969)">(b)</text><text font-family="Calibri,Calibri_MSFontService,sans-serif" font-weight="400" font-size="64" transform="matrix(1 0 0 1 2433.1 3969)">(c)</text><text font-family="Calibri,Calibri_MSFontService,sans-serif" font-weight="400" font-size="64" transform="matrix(1 0 0 1 3335.01 3856)">(d)</text><path d="M1836 3924C1836 3946.09 1818.09 3964 1796 3964 1773.91 3964 1756 3946.09 1756 3924 1756 3901.91 1773.91 3884 1796 3884 1818.09 3884 1836 3901.91 1836 3924Z" fill="#FFC000" fill-rule="evenodd"/><path d="M1525.59 3639.81C1541.16 3624.24 1566.41 3624.24 1581.98 3639.81 1597.55 3655.38 1597.55 3680.62 1581.98 3696.19 1566.41 3711.76 1541.16 3711.76 1525.59 3696.19 1510.03 3680.62 1510.03 3655.38 1525.59 3639.81Z" fill="#70AD47" fill-rule="evenodd"/><path d="M1907.25 3547.23C1925.58 3535.04 1950.33 3540.01 1962.52 3558.35 1974.72 3576.68 1969.75 3601.43 1951.41 3613.62 1933.08 3625.82 1908.33 3620.84 1896.14 3602.51 1883.94 3584.18 1888.92 3559.43 1907.25 3547.23Z" fill="#4472C4" fill-rule="evenodd"/><path d="M0.366272-1.67927 286.245 60.6749 285.513 64.0335-0.366272 1.67927ZM284.331 47.9434 308.269 67.2379 278.471 74.8117Z" transform="matrix(1 0 0 -1 1582.5 3640.74)"/><path d="M1750.48 3882.4 1553.37 3709.79 1555.63 3707.21 1752.75 3879.81ZM1757.22 3867.74 1768.85 3896.21 1739.11 3888.43Z"/><path d="M11.358 19.978 126.697 263.646 123.59 265.117 8.251 21.4487ZM-0.662622 30.7388 0 0 24.1935 18.9734Z" transform="matrix(1 0 0 -1 1796.5 3884.88)"/><path d="M1466.15 3769.13C1467.65 3769.13 1468.74 3769.52 1469.4 3770.31 1470.07 3771.09 1470.4 3772.13 1470.4 3773.45 1470.4 3774.45 1470.22 3775.59 1469.87 3776.88 1469.52 3778.18 1469.02 3779.54 1468.37 3780.98 1467.72 3782.42 1466.95 3783.89 1466.06 3785.4 1465.16 3786.91 1464.17 3788.38 1463.09 3789.81 1462.01 3791.23 1460.85 3792.58 1459.62 3793.84 1458.39 3795.1 1457.12 3796.2 1455.79 3797.13 1454.47 3798.07 1453.13 3798.82 1451.76 3799.37 1450.4 3799.92 1449.04 3800.2 1447.68 3800.2 1447.08 3800.2 1446.57 3800.05 1446.17 3799.74 1445.76 3799.44 1445.43 3799.01 1445.18 3798.46 1444.93 3797.91 1444.76 3797.26 1444.65 3796.51 1444.55 3795.76 1444.5 3794.94 1444.5 3794.04 1444.5 3792.85 1444.57 3791.58 1444.71 3790.23 1444.86 3788.87 1445.05 3787.51 1445.28 3786.13L1446.59 3777.48C1446.67 3776.98 1446.74 3776.5 1446.79 3776.06 1446.84 3775.61 1446.87 3775.28 1446.87 3775.07 1446.87 3774.43 1446.77 3773.89 1446.56 3773.48 1446.35 3773.06 1446 3772.85 1445.5 3772.85 1445.1 3772.85 1444.67 3772.97 1444.21 3773.21 1443.76 3773.45 1443.29 3773.76 1442.82 3774.13 1442.36 3774.51 1441.9 3774.91 1441.46 3775.34 1441.03 3775.76 1440.62 3776.17 1440.25 3776.54L1438.75 3774.79C1439.39 3774.12 1440.08 3773.46 1440.81 3772.81 1441.54 3772.15 1442.31 3771.56 1443.12 3771.02 1443.93 3770.49 1444.79 3770.07 1445.68 3769.74 1446.58 3769.42 1447.5 3769.26 1448.43 3769.26 1449.22 3769.26 1449.87 3769.39 1450.37 3769.65 1450.87 3769.91 1451.26 3770.25 1451.54 3770.68 1451.82 3771.11 1452.02 3771.58 1452.12 3772.09 1452.22 3772.6 1452.28 3773.1 1452.28 3773.6 1452.28 3773.89 1452.27 3774.18 1452.25 3774.45 1452.22 3774.72 1452.19 3774.97 1452.15 3775.2L1450.4 3786.51C1450.21 3787.7 1450.06 3788.86 1449.93 3789.99 1449.81 3791.13 1449.75 3792.13 1449.75 3793.01 1449.75 3793.88 1449.8 3794.59 1449.9 3795.13 1450.01 3795.68 1450.2 3795.95 1450.5 3795.95 1451.18 3795.95 1452.05 3795.67 1453.09 3795.12 1454.13 3794.57 1455.22 3793.81 1456.37 3792.84 1457.52 3791.87 1458.66 3790.72 1459.81 3789.4 1460.95 3788.08 1461.99 3786.64 1462.9 3785.1 1463.82 3783.56 1464.56 3781.94 1465.14 3780.23 1465.71 3778.52 1466 3776.8 1466 3775.07 1466 3774.32 1465.83 3773.74 1465.51 3773.34 1465.19 3772.93 1464.68 3772.73 1464 3772.73 1463.12 3772.73 1462.31 3773.07 1461.57 3773.74 1460.83 3774.42 1460.07 3775.31 1459.28 3776.42L1457.5 3774.82C1458 3774.07 1458.58 3773.35 1459.26 3772.67 1459.94 3771.98 1460.66 3771.37 1461.42 3770.85 1462.18 3770.33 1462.96 3769.92 1463.78 3769.6 1464.59 3769.29 1465.38 3769.13 1466.15 3769.13Z" fill-rule="evenodd"/><text fill="#000000" fill-opacity="0" font-family="Arial,Arial_MSFontService,sans-serif" font-size="31.0625" x="1438.75" y="3796.31">𝑣</text><path d="M1481.9 3789.55 1483.03 3789.55 1479.63 3804.83C1479.42 3805.74 1479.27 3806.45 1479.18 3806.99 1479.1 3807.53 1479.06 3808.01 1479.06 3808.44 1479.06 3809.02 1479.18 3809.44 1479.41 3809.7 1479.65 3809.96 1480.01 3810.09 1480.48 3810.09 1480.76 3810.09 1481.03 3810.03 1481.31 3809.93 1481.58 3809.82 1481.88 3809.65 1482.19 3809.42 1482.5 3809.19 1482.85 3808.9 1483.22 3808.54 1483.6 3808.18 1484.01 3807.75 1484.47 3807.24L1486.03 3808.76C1485.24 3809.57 1484.52 3810.25 1483.87 3810.81 1483.21 3811.37 1482.6 3811.82 1482.02 3812.18 1481.44 3812.53 1480.87 3812.78 1480.31 3812.93 1479.75 3813.09 1479.16 3813.16 1478.53 3813.16 1477.95 3813.16 1477.42 3813.06 1476.96 3812.84 1476.49 3812.63 1476.09 3812.33 1475.75 3811.96 1475.42 3811.58 1475.16 3811.14 1474.97 3810.62 1474.79 3810.1 1474.7 3809.52 1474.7 3808.9 1474.7 3808.39 1474.76 3807.76 1474.88 3807.01 1475 3806.26 1475.16 3805.45 1475.35 3804.57 1475.54 3803.69 1475.75 3802.77 1475.98 3801.8 1476.21 3800.84 1476.44 3799.88 1476.66 3798.94 1476.88 3797.99 1477.08 3797.07 1477.26 3796.19 1477.43 3795.31 1477.56 3794.51 1477.63 3793.79 1477.67 3793.67 1477.68 3793.55 1477.68 3793.44 1477.68 3793.32 1477.68 3793.22 1477.68 3793.13 1477.65 3792.53 1477.44 3792.1 1477.05 3791.82 1476.66 3791.55 1475.97 3791.39 1474.97 3791.36L1475.25 3789.8ZM1480.57 3780.3 1485.16 3780.3 1484.04 3785.23 1479.49 3785.23Z" fill-rule="evenodd"/><text fill="#000000" fill-opacity="0" font-family="Arial,Arial_MSFontService,sans-serif" font-size="32.8633" x="1474.7" y="3809.06">𝑖</text><path d="M1616.86 3543.36C1614.76 3543.36 1612.73 3544.42 1610.79 3546.54 1608.84 3548.67 1607.34 3551.54 1606.3 3555.17 1609.24 3555.15 1611.76 3554.88 1613.86 3554.37 1615.97 3553.86 1617.58 3553.05 1618.71 3551.93 1619.83 3550.82 1620.4 3549.31 1620.4 3547.42 1620.4 3546.15 1620.1 3545.15 1619.5 3544.43 1618.91 3543.72 1618.03 3543.36 1616.86 3543.36ZM1617.99 3540.89C1620.51 3540.89 1622.4 3541.4 1623.66 3542.42 1624.92 3543.44 1625.55 3545.03 1625.55 3547.2 1625.55 3550.74 1623.89 3553.4 1620.57 3555.17 1617.24 3556.94 1612.31 3557.83 1605.77 3557.83 1605.52 3559.08 1605.4 3560.43 1605.4 3561.89 1605.4 3564.08 1605.82 3565.66 1606.68 3566.65 1607.53 3567.64 1608.93 3568.14 1610.86 3568.14 1612.78 3568.14 1614.52 3567.72 1616.07 3566.89 1617.62 3566.05 1619.26 3564.77 1620.99 3563.04L1622.93 3565.08C1620.91 3567.3 1618.86 3568.98 1616.79 3570.11 1614.71 3571.23 1612.3 3571.79 1609.55 3571.79 1606.53 3571.79 1604.19 3570.87 1602.54 3569.03 1600.88 3567.18 1600.05 3564.62 1600.05 3561.33 1600.05 3559.1 1600.45 3556.71 1601.25 3554.15 1602.06 3551.6 1603.27 3549.31 1604.9 3547.28 1606.52 3545.25 1608.47 3543.67 1610.74 3542.56 1613.01 3541.45 1615.43 3540.89 1617.99 3540.89Z" fill-rule="evenodd"/><text fill="#000000" fill-opacity="0" font-family="Arial,Arial_MSFontService,sans-serif" font-size="30.9062" x="1600.05" y="3567.93">𝑒</text><path d="M1637.99 3561.18 1639.11 3561.18 1635.72 3576.46C1635.5 3577.36 1635.35 3578.08 1635.27 3578.62 1635.19 3579.15 1635.14 3579.64 1635.14 3580.07 1635.14 3580.65 1635.26 3581.07 1635.5 3581.33 1635.74 3581.59 1636.09 3581.72 1636.57 3581.72 1636.84 3581.72 1637.12 3581.66 1637.39 3581.56 1637.67 3581.45 1637.96 3581.28 1638.28 3581.05 1638.59 3580.82 1638.93 3580.53 1639.31 3580.17 1639.68 3579.81 1640.1 3579.38 1640.56 3578.87L1642.12 3580.39C1641.33 3581.2 1640.6 3581.88 1639.95 3582.44 1639.3 3583 1638.69 3583.45 1638.1 3583.81 1637.52 3584.16 1636.95 3584.41 1636.4 3584.56 1635.84 3584.72 1635.24 3584.79 1634.62 3584.79 1634.04 3584.79 1633.51 3584.69 1633.04 3584.47 1632.58 3584.26 1632.18 3583.96 1631.84 3583.59 1631.5 3583.21 1631.24 3582.77 1631.06 3582.25 1630.88 3581.73 1630.78 3581.15 1630.78 3580.52 1630.78 3580.02 1630.85 3579.39 1630.97 3578.64 1631.09 3577.89 1631.25 3577.08 1631.44 3576.2 1631.63 3575.32 1631.84 3574.4 1632.07 3573.43 1632.3 3572.47 1632.52 3571.51 1632.75 3570.56 1632.97 3569.62 1633.17 3568.7 1633.34 3567.82 1633.52 3566.94 1633.65 3566.14 1633.72 3565.42 1633.75 3565.3 1633.77 3565.18 1633.77 3565.07 1633.77 3564.95 1633.77 3564.85 1633.77 3564.76 1633.74 3564.16 1633.53 3563.73 1633.14 3563.45 1632.75 3563.17 1632.05 3563.02 1631.06 3562.99L1631.33 3561.43ZM1636.66 3551.93 1641.25 3551.93 1640.12 3556.86 1635.58 3556.86Z" fill-rule="evenodd"/><text fill="#000000" fill-opacity="0" font-family="Arial,Arial_MSFontService,sans-serif" font-size="32.8633" x="1630.78" y="3580.68">𝑖</text><path d="M1648.27 3579.06 1652.28 3579.06C1652.5 3580.13 1652.61 3581.18 1652.61 3582.22 1652.61 3583.29 1652.42 3584.27 1652.06 3585.16 1651.69 3586.05 1651.1 3586.93 1650.3 3587.81 1649.5 3588.69 1648.39 3589.66 1646.98 3590.71L1645.74 3589.31C1646.52 3588.58 1647.09 3587.92 1647.44 3587.33 1647.79 3586.74 1648.05 3586.07 1648.2 3585.32 1648.35 3584.57 1648.43 3583.63 1648.43 3582.5 1648.43 3581.33 1648.38 3580.19 1648.27 3579.06Z" fill-rule="evenodd"/><text fill="#000000" fill-opacity="0" font-family="Arial,Arial_MSFontService,sans-serif" font-size="11.6582" x="1645.74" y="3589.26">,</text><path d="M1671.57 3561.18 1673.15 3561.18 1668.38 3583.67C1668 3585.41 1667.51 3586.91 1666.9 3588.15 1666.3 3589.4 1665.56 3590.42 1664.69 3591.22 1663.81 3592.01 1662.8 3592.6 1661.63 3592.97 1660.47 3593.35 1659.14 3593.54 1657.64 3593.54 1657.24 3593.54 1656.86 3593.52 1656.49 3593.48 1656.13 3593.44 1655.8 3593.38 1655.51 3593.31L1656.08 3590.9C1656.26 3590.97 1656.51 3591.02 1656.81 3591.05 1657.12 3591.07 1657.47 3591.08 1657.87 3591.08 1658.62 3591.08 1659.29 3590.98 1659.88 3590.78 1660.47 3590.58 1661 3590.22 1661.46 3589.7 1661.93 3589.18 1662.35 3588.47 1662.72 3587.56 1663.1 3586.65 1663.45 3585.48 1663.77 3584.06 1664.3 3581.58 1664.82 3579.25 1665.31 3577.08 1665.8 3574.91 1666.2 3573.09 1666.51 3571.62 1666.82 3570.15 1667.07 3568.98 1667.26 3568.11 1667.44 3567.24 1667.57 3566.56 1667.66 3566.09 1667.74 3565.61 1667.79 3565.28 1667.81 3565.08 1667.82 3564.88 1667.83 3564.72 1667.83 3564.6 1667.83 3564.06 1667.63 3563.67 1667.22 3563.42 1666.82 3563.16 1666.1 3563.02 1665.08 3562.99L1665.42 3561.43ZM1670.72 3551.93 1675.33 3551.93 1674.21 3556.86 1669.6 3556.86Z" fill-rule="evenodd"/><text fill="#000000" fill-opacity="0" font-family="Arial,Arial_MSFontService,sans-serif" font-size="41.6069" x="1655.51" y="3588.34">𝑗</text><path d="M22.7615 3.16941 302.848 63.8095 302.12 67.1692 22.0341 6.52907ZM23.9678 19.2577 0 0 29.7868-7.61958Z" transform="matrix(1 0 0 -1 1594.5 3668.99)"/><path d="M1.56734-0.705376 119.054 260.348 115.919 261.758-1.56734 0.705376ZM128.144 251.23 126.891 281.951 103.066 262.516Z" transform="matrix(1 0 0 -1 1825.5 3896.45)"/><path d="M1795.72 3885.5 1598.61 3712.89 1600.87 3710.3 1797.99 3882.91ZM1594.13 3724.96 1582.5 3696.5 1612.25 3704.27Z"/><path d="M1846.7 3908.1 1886.3 3908.1 1886.3 3949.02 1846.7 3949.02Z" fill="#FFC000" fill-rule="evenodd"/><path d="M1886.3 3908.1 1925.9 3908.1 1925.9 3949.02 1886.3 3949.02Z" fill="#FFC000" fill-rule="evenodd"/><path d="M1886.3 3907.53 1886.3 3949.59" stroke="#BF9000" stroke-width="1.14583" stroke-linejoin="round" stroke-miterlimit="10" fill="none" fill-rule="evenodd"/><path d="M1846.7 3907.53 1846.7 3949.59" stroke="#BF9000" stroke-width="1.14583" stroke-linejoin="round" stroke-miterlimit="10" fill="none" fill-rule="evenodd"/><path d="M1925.9 3907.53 1925.9 3949.59" stroke="#BF9000" stroke-width="1.14583" stroke-linejoin="round" stroke-miterlimit="10" fill="none" fill-rule="evenodd"/><path d="M1846.13 3908.1 1926.48 3908.1" stroke="#BF9000" stroke-width="1.14583" stroke-linejoin="round" stroke-miterlimit="10" fill="none" fill-rule="evenodd"/><path d="M1846.13 3949.02 1926.48 3949.02" stroke="#BF9000" stroke-width="1.14583" stroke-linejoin="round" stroke-miterlimit="10" fill="none" fill-rule="evenodd"/><path d="M1953.69 3501.25 1993.29 3501.25 1993.29 3542.17 1953.69 3542.17Z" fill="#4472C4" fill-rule="evenodd"/><path d="M1993.29 3501.25 2032.89 3501.25 2032.89 3542.17 1993.29 3542.17Z" fill="#4472C4" fill-rule="evenodd"/><path d="M1993.29 3500.67 1993.29 3542.74" stroke="#203864" stroke-width="1.14583" stroke-linejoin="round" stroke-miterlimit="10" fill="none" fill-rule="evenodd"/><path d="M1953.69 3500.67 1953.69 3542.74" stroke="#203864" stroke-width="1.14583" stroke-linejoin="round" stroke-miterlimit="10" fill="none" fill-rule="evenodd"/><path d="M2032.89 3500.67 2032.89 3542.74" stroke="#203864" stroke-width="1.14583" stroke-linejoin="round" stroke-miterlimit="10" fill="none" fill-rule="evenodd"/><path d="M1953.12 3501.25 2033.47 3501.25" stroke="#203864" stroke-width="1.14583" stroke-linejoin="round" stroke-miterlimit="10" fill="none" fill-rule="evenodd"/><path d="M1953.12 3542.17 2033.47 3542.17" stroke="#203864" stroke-width="1.14583" stroke-linejoin="round" stroke-miterlimit="10" fill="none" fill-rule="evenodd"/><path d="M1450.09 3710.38 1489.69 3710.38 1489.69 3751.3 1450.09 3751.3Z" fill="#70AD47" fill-rule="evenodd"/><path d="M1489.69 3710.38 1529.29 3710.38 1529.29 3751.3 1489.69 3751.3Z" fill="#70AD47" fill-rule="evenodd"/><path d="M1489.69 3709.81 1489.69 3751.87" stroke="#385723" stroke-width="1.14583" stroke-linejoin="round" stroke-miterlimit="10" fill="none" fill-rule="evenodd"/><path d="M1450.09 3709.81 1450.09 3751.87" stroke="#385723" stroke-width="1.14583" stroke-linejoin="round" stroke-miterlimit="10" fill="none" fill-rule="evenodd"/><path d="M1529.29 3709.81 1529.29 3751.87" stroke="#385723" stroke-width="1.14583" stroke-linejoin="round" stroke-miterlimit="10" fill="none" fill-rule="evenodd"/><path d="M1449.51 3710.38 1529.86 3710.38" stroke="#385723" stroke-width="1.14583" stroke-linejoin="round" stroke-miterlimit="10" fill="none" fill-rule="evenodd"/><path d="M1449.51 3751.3 1529.86 3751.3" stroke="#385723" stroke-width="1.14583" stroke-linejoin="round" stroke-miterlimit="10" fill="none" fill-rule="evenodd"/><path d="M1690.06 3586.4 1727.35 3578.14 1735.62 3615.43 1698.33 3623.69Z" stroke="#595959" stroke-width="1.14583" stroke-miterlimit="8" fill="#D2D2D2" fill-rule="evenodd" fill-opacity="0.501961"/><path d="M1728.65 3577.85 1765.94 3569.58 1774.21 3606.87 1736.92 3615.14Z" stroke="#595959" stroke-width="1.14583" stroke-miterlimit="8" fill="#D2D2D2" fill-rule="evenodd" fill-opacity="0.501961"/><path d="M1701.41 3633.12 1738.7 3624.85 1746.97 3662.14 1709.68 3670.41Z" stroke="#595959" stroke-width="1.14583" stroke-miterlimit="8" stroke-opacity="0.94902" fill="#D2D2D2" fill-rule="evenodd" fill-opacity="0.501961"/><path d="M1740 3624.57 1777.29 3616.3 1785.56 3653.59 1748.27 3661.86Z" stroke="#595959" stroke-width="1.14583" stroke-miterlimit="8" stroke-opacity="0.94902" fill="#D2D2D2" fill-rule="evenodd" fill-opacity="0.501961"/><path d="M1821.62 3763.45 1837.35 3728.64 1872.16 3744.37 1856.43 3779.18Z" stroke="#595959" stroke-width="1.14583" stroke-miterlimit="8" fill="#D2D2D2" fill-rule="evenodd" fill-opacity="0.501961"/><path d="M1837.9 3727.43 1853.62 3692.62 1888.43 3708.35 1872.7 3743.16Z" stroke="#595959" stroke-width="1.14583" stroke-miterlimit="8" fill="#D2D2D2" fill-rule="evenodd" fill-opacity="0.501961"/><path d="M1865.82 3782.36 1881.55 3747.55 1916.36 3763.28 1900.63 3798.09Z" stroke="#595959" stroke-width="1.14583" stroke-miterlimit="8" stroke-opacity="0.94902" fill="#D2D2D2" fill-rule="evenodd" fill-opacity="0.501961"/><path d="M1882.1 3746.34 1897.83 3711.54 1932.63 3727.26 1916.9 3762.07Z" stroke="#595959" stroke-width="1.14583" stroke-miterlimit="8" stroke-opacity="0.94902" fill="#D2D2D2" fill-rule="evenodd" fill-opacity="0.501961"/><path d="M1673.01 3736.95 1701.92 3761.92 1676.95 3790.82 1648.04 3765.85Z" stroke="#595959" stroke-width="1.14583" stroke-miterlimit="8" fill="#D2D2D2" fill-rule="evenodd" fill-opacity="0.501961"/><path d="M1702.92 3762.79 1731.83 3787.76 1706.86 3816.66 1677.95 3791.69Z" stroke="#595959" stroke-width="1.14583" stroke-miterlimit="8" fill="#D2D2D2" fill-rule="evenodd" fill-opacity="0.501961"/><path d="M1642.32 3773.95 1671.23 3798.92 1646.26 3827.83 1617.35 3802.86Z" stroke="#595959" stroke-width="1.14583" stroke-miterlimit="8" stroke-opacity="0.94902" fill="#D2D2D2" fill-rule="evenodd" fill-opacity="0.501961"/><path d="M1672.23 3799.79 1701.14 3824.76 1676.17 3853.66 1647.26 3828.69Z" stroke="#595959" stroke-width="1.14583" stroke-miterlimit="8" stroke-opacity="0.94902" fill="#D2D2D2" fill-rule="evenodd" fill-opacity="0.501961"/><path d="M2856 3927.5C2856 3949.32 2838.09 3967 2816 3967 2793.91 3967 2776 3949.32 2776 3927.5 2776 3905.68 2793.91 3888 2816 3888 2838.09 3888 2856 3905.68 2856 3927.5Z" fill="#FFC000" fill-rule="evenodd"/><path d="M2545.11 3643.61C2560.68 3628.04 2585.93 3628.04 2601.5 3643.61 2617.07 3659.17 2617.07 3684.42 2601.5 3699.99 2585.93 3715.56 2560.68 3715.56 2545.11 3699.99 2529.55 3684.42 2529.55 3659.17 2545.11 3643.61Z" fill="#70AD47" fill-rule="evenodd"/><path d="M2926.77 3551.03C2945.1 3538.84 2969.85 3543.81 2982.04 3562.14 2994.24 3580.48 2989.27 3605.22 2970.93 3617.42 2952.6 3629.61 2927.85 3624.64 2915.66 3606.31 2903.46 3587.97 2908.44 3563.23 2926.77 3551.03Z" fill="#4472C4" fill-rule="evenodd"/><path d="M0.366272-1.67927 286.245 60.6749 285.513 64.0335-0.366272 1.67927ZM284.331 47.9434 308.269 67.2379 278.471 74.8117Z" transform="matrix(1 0 0 -1 2601.5 3643.74)"/><path d="M2769.48 3886.4 2572.37 3713.79 2574.63 3711.21 2771.75 3883.81ZM2776.22 3871.74 2787.85 3900.21 2758.11 3892.43Z"/><path d="M11.358 19.978 126.697 263.646 123.59 265.117 8.251 21.4487ZM-0.662622 30.7388 0 0 24.1935 18.9734Z" transform="matrix(1 0 0 -1 2816.5 3887.88)"/><path d="M2643.55 3547.15C2641.44 3547.15 2639.42 3548.22 2637.47 3550.34 2635.52 3552.47 2634.02 3555.34 2632.98 3558.97 2635.92 3558.95 2638.44 3558.68 2640.55 3558.17 2642.65 3557.66 2644.26 3556.85 2645.39 3555.73 2646.51 3554.62 2647.08 3553.11 2647.08 3551.22 2647.08 3549.95 2646.78 3548.95 2646.19 3548.23 2645.59 3547.51 2644.71 3547.15 2643.55 3547.15ZM2644.67 3544.69C2647.19 3544.69 2649.08 3545.2 2650.34 3546.22 2651.6 3547.24 2652.23 3548.83 2652.23 3551 2652.23 3554.54 2650.57 3557.2 2647.25 3558.97 2643.93 3560.74 2638.99 3561.62 2632.45 3561.62 2632.2 3562.87 2632.08 3564.23 2632.08 3565.69 2632.08 3567.87 2632.5 3569.46 2633.36 3570.45 2634.21 3571.44 2635.61 3571.94 2637.55 3571.94 2639.46 3571.94 2641.2 3571.52 2642.75 3570.69 2644.3 3569.85 2645.94 3568.57 2647.67 3566.84L2649.61 3568.87C2647.59 3571.1 2645.54 3572.78 2643.47 3573.9 2641.39 3575.03 2638.98 3575.59 2636.23 3575.59 2633.21 3575.59 2630.87 3574.67 2629.22 3572.83 2627.56 3570.98 2626.73 3568.41 2626.73 3565.12 2626.73 3562.89 2627.13 3560.5 2627.94 3557.95 2628.74 3555.4 2629.95 3553.11 2631.58 3551.08 2633.2 3549.04 2635.15 3547.47 2637.42 3546.36 2639.69 3545.24 2642.11 3544.69 2644.67 3544.69Z" fill-rule="evenodd"/><text fill="#000000" fill-opacity="0" font-family="Arial,Arial_MSFontService,sans-serif" font-size="30.9062" x="2626.73" y="3571.73">𝑒</text><path d="M2664.67 3567.56 2665.8 3567.56 2662.4 3582.85C2662.19 3583.75 2662.04 3584.47 2661.95 3585.01 2661.87 3585.54 2661.83 3586.02 2661.83 3586.45 2661.83 3587.03 2661.94 3587.45 2662.18 3587.71 2662.42 3587.97 2662.77 3588.1 2663.25 3588.1 2663.52 3588.1 2663.8 3588.05 2664.07 3587.94 2664.35 3587.84 2664.64 3587.67 2664.96 3587.44 2665.27 3587.21 2665.62 3586.91 2665.99 3586.56 2666.37 3586.2 2666.78 3585.76 2667.24 3585.26L2668.8 3586.77C2668.01 3587.58 2667.28 3588.27 2666.63 3588.83 2665.98 3589.39 2665.37 3589.84 2664.79 3590.19 2664.21 3590.54 2663.64 3590.8 2663.08 3590.95 2662.52 3591.1 2661.93 3591.18 2661.3 3591.18 2660.72 3591.18 2660.19 3591.07 2659.73 3590.86 2659.26 3590.64 2658.86 3590.35 2658.52 3589.97 2658.18 3589.6 2657.92 3589.15 2657.74 3588.63 2657.56 3588.11 2657.47 3587.54 2657.47 3586.91 2657.47 3586.41 2657.53 3585.78 2657.65 3585.03 2657.77 3584.28 2657.93 3583.46 2658.12 3582.58 2658.31 3581.71 2658.52 3580.78 2658.75 3579.82 2658.98 3578.86 2659.21 3577.9 2659.43 3576.95 2659.65 3576 2659.85 3575.09 2660.02 3574.21 2660.2 3573.33 2660.33 3572.53 2660.4 3571.81 2660.43 3571.69 2660.45 3571.57 2660.45 3571.45 2660.45 3571.34 2660.45 3571.24 2660.45 3571.14 2660.42 3570.55 2660.21 3570.11 2659.82 3569.84 2659.43 3569.56 2658.74 3569.41 2657.74 3569.38L2658.02 3567.82ZM2663.34 3558.32 2667.93 3558.32 2666.81 3563.25 2662.26 3563.25Z" fill-rule="evenodd"/><text fill="#000000" fill-opacity="0" font-family="Arial,Arial_MSFontService,sans-serif" font-size="32.8633" x="2657.47" y="3587.07">𝑖</text><path d="M2674.95 3585.44 2678.97 3585.44C2679.18 3586.51 2679.29 3587.57 2679.29 3588.61 2679.29 3589.68 2679.1 3590.66 2678.74 3591.55 2678.37 3592.43 2677.78 3593.32 2676.98 3594.2 2676.18 3595.08 2675.07 3596.04 2673.66 3597.1L2672.43 3595.7C2673.21 3594.97 2673.77 3594.3 2674.12 3593.72 2674.48 3593.13 2674.73 3592.46 2674.88 3591.71 2675.03 3590.96 2675.11 3590.02 2675.11 3588.88 2675.11 3587.72 2675.06 3586.57 2674.95 3585.44Z" fill-rule="evenodd"/><text fill="#000000" fill-opacity="0" font-family="Arial,Arial_MSFontService,sans-serif" font-size="11.6582" x="2672.43" y="3595.64">,</text><path d="M2698.25 3567.56 2699.84 3567.56 2695.06 3590.05C2694.68 3591.8 2694.19 3593.29 2693.58 3594.54 2692.98 3595.79 2692.24 3596.81 2691.37 3597.61 2690.5 3598.4 2689.48 3598.99 2688.32 3599.36 2687.15 3599.74 2685.82 3599.92 2684.32 3599.92 2683.92 3599.92 2683.54 3599.9 2683.17 3599.87 2682.81 3599.83 2682.48 3599.77 2682.19 3599.69L2682.76 3597.28C2682.95 3597.36 2683.19 3597.41 2683.5 3597.43 2683.8 3597.46 2684.15 3597.47 2684.55 3597.47 2685.3 3597.47 2685.97 3597.37 2686.56 3597.17 2687.15 3596.97 2687.68 3596.61 2688.14 3596.09 2688.61 3595.57 2689.03 3594.86 2689.41 3593.94 2689.78 3593.03 2690.13 3591.87 2690.45 3590.45 2690.99 3587.97 2691.5 3585.64 2691.99 3583.47 2692.48 3581.3 2692.88 3579.48 2693.19 3578.01 2693.51 3576.54 2693.75 3575.37 2693.94 3574.5 2694.12 3573.62 2694.26 3572.95 2694.34 3572.48 2694.42 3572 2694.47 3571.67 2694.49 3571.47 2694.5 3571.27 2694.51 3571.11 2694.51 3570.98 2694.51 3570.45 2694.31 3570.05 2693.9 3569.8 2693.5 3569.55 2692.78 3569.41 2691.76 3569.38L2692.1 3567.82ZM2697.4 3558.32 2702.02 3558.32 2700.89 3563.25 2696.28 3563.25Z" fill-rule="evenodd"/><text fill="#000000" fill-opacity="0" font-family="Arial,Arial_MSFontService,sans-serif" font-size="41.6069" x="2682.19" y="3594.72">𝑗</text><path d="M2666.82 3524.71 2672.74 3524.71 2672.74 3526.5 2665.1 3544.88 2662.42 3544.08Z" fill-rule="evenodd"/><text fill="#000000" fill-opacity="0" font-family="Arial,Arial_MSFontService,sans-serif" font-size="20.1724" x="2662.42" y="3542.36">′</text><path d="M22.7615 3.16941 302.848 63.8095 302.12 67.1692 22.0341 6.52907ZM23.9678 19.2577 0 0 29.7868-7.61958Z" transform="matrix(1 0 0 -1 2613.5 3671.99)"/><path d="M1.56734-0.705376 119.054 260.348 115.919 261.758-1.56734 0.705376ZM128.144 251.23 126.891 281.951 103.066 262.516Z" transform="matrix(1 0 0 -1 2844.5 3899.45)"/><path d="M2814.72 3889.5 2617.61 3716.89 2619.87 3714.3 2816.99 3886.91ZM2613.13 3728.96 2601.5 3700.5 2631.25 3708.27Z"/><path d="M2866.22 3911.9 2905.82 3911.9 2905.82 3952.82 2866.22 3952.82Z" fill="#FFF2CC" fill-rule="evenodd"/><path d="M2905.82 3911.9 2945.42 3911.9 2945.42 3952.82 2905.82 3952.82Z" fill="#FFE699" fill-rule="evenodd"/><path d="M2905.82 3911.33 2905.82 3953.39" stroke="#BF9000" stroke-width="1.14583" stroke-linejoin="round" stroke-miterlimit="10" fill="none" fill-rule="evenodd"/><path d="M2866.22 3911.33 2866.22 3953.39" stroke="#BF9000" stroke-width="1.14583" stroke-linejoin="round" stroke-miterlimit="10" fill="none" fill-rule="evenodd"/><path d="M2945.42 3911.33 2945.42 3953.39" stroke="#BF9000" stroke-width="1.14583" stroke-linejoin="round" stroke-miterlimit="10" fill="none" fill-rule="evenodd"/><path d="M2865.65 3911.9 2946 3911.9" stroke="#BF9000" stroke-width="1.14583" stroke-linejoin="round" stroke-miterlimit="10" fill="none" fill-rule="evenodd"/><path d="M2865.65 3952.82 2946 3952.82" stroke="#BF9000" stroke-width="1.14583" stroke-linejoin="round" stroke-miterlimit="10" fill="none" fill-rule="evenodd"/><path d="M2973.21 3505.04 3012.81 3505.04 3012.81 3545.96 2973.21 3545.96Z" fill="#4472C4" fill-rule="evenodd"/><path d="M3012.81 3505.04 3052.41 3505.04 3052.41 3545.96 3012.81 3545.96Z" fill="#1F4E79" fill-rule="evenodd"/><path d="M3012.81 3504.47 3012.81 3546.54" stroke="#203864" stroke-width="1.14583" stroke-linejoin="round" stroke-miterlimit="10" fill="none" fill-rule="evenodd"/><path d="M2973.21 3504.47 2973.21 3546.54" stroke="#203864" stroke-width="1.14583" stroke-linejoin="round" stroke-miterlimit="10" fill="none" fill-rule="evenodd"/><path d="M3052.41 3504.47 3052.41 3546.54" stroke="#203864" stroke-width="1.14583" stroke-linejoin="round" stroke-miterlimit="10" fill="none" fill-rule="evenodd"/><path d="M2972.64 3505.04 3052.99 3505.04" stroke="#203864" stroke-width="1.14583" stroke-linejoin="round" stroke-miterlimit="10" fill="none" fill-rule="evenodd"/><path d="M2972.64 3545.96 3052.99 3545.96" stroke="#203864" stroke-width="1.14583" stroke-linejoin="round" stroke-miterlimit="10" fill="none" fill-rule="evenodd"/><path d="M2469.61 3714.18 2509.21 3714.18 2509.21 3755.1 2469.61 3755.1Z" fill="#548235" fill-rule="evenodd"/><path d="M2509.21 3714.18 2548.81 3714.18 2548.81 3755.1 2509.21 3755.1Z" fill="#E2F0D9" fill-rule="evenodd"/><path d="M2509.21 3713.61 2509.21 3755.67" stroke="#385723" stroke-width="1.14583" stroke-linejoin="round" stroke-miterlimit="10" fill="none" fill-rule="evenodd"/><path d="M2469.61 3713.61 2469.61 3755.67" stroke="#385723" stroke-width="1.14583" stroke-linejoin="round" stroke-miterlimit="10" fill="none" fill-rule="evenodd"/><path d="M2548.81 3713.61 2548.81 3755.67" stroke="#385723" stroke-width="1.14583" stroke-linejoin="round" stroke-miterlimit="10" fill="none" fill-rule="evenodd"/><path d="M2469.03 3714.18 2549.38 3714.18" stroke="#385723" stroke-width="1.14583" stroke-linejoin="round" stroke-miterlimit="10" fill="none" fill-rule="evenodd"/><path d="M2469.03 3755.1 2549.38 3755.1" stroke="#385723" stroke-width="1.14583" stroke-linejoin="round" stroke-miterlimit="10" fill="none" fill-rule="evenodd"/><path d="M2709.58 3590.2 2746.87 3581.93 2755.14 3619.22 2717.85 3627.49Z" stroke="#595959" stroke-width="1.14583" stroke-miterlimit="8" fill="#262626" fill-rule="evenodd" fill-opacity="0.501961"/><path d="M2748.17 3581.65 2785.46 3573.38 2793.73 3610.67 2756.44 3618.94Z" stroke="#595959" stroke-width="1.14583" stroke-miterlimit="8" fill="#FFFFFF" fill-rule="evenodd" fill-opacity="0.501961"/><path d="M2720.93 3636.92 2758.22 3628.65 2766.49 3665.94 2729.2 3674.21Z" stroke="#595959" stroke-width="1.14583" stroke-miterlimit="8" stroke-opacity="0.94902" fill="#F2F2F2" fill-rule="evenodd" fill-opacity="0.501961"/><path d="M2759.52 3628.36 2796.81 3620.09 2805.08 3657.38 2767.79 3665.65Z" stroke="#595959" stroke-width="1.14583" stroke-miterlimit="8" stroke-opacity="0.94902" fill="#D9D9D9" fill-rule="evenodd" fill-opacity="0.501961"/><path d="M2952.54 3732.3 2936.04 3766.75 2901.59 3750.25 2918.1 3715.8Z" stroke="#595959" stroke-width="1.14583" stroke-miterlimit="8" fill="#D2D2D2" fill-rule="evenodd" fill-opacity="0.501961"/><path d="M2935.47 3767.95 2918.96 3802.4 2884.52 3785.9 2901.02 3751.45Z" stroke="#595959" stroke-width="1.14583" stroke-miterlimit="8" fill="#0D0D0D" fill-rule="evenodd" fill-opacity="0.701961"/><path d="M2908.78 3712.41 2892.27 3746.86 2857.83 3730.36 2874.33 3695.91Z" stroke="#595959" stroke-width="1.14583" stroke-miterlimit="8" stroke-opacity="0.94902" fill="#D2D2D2" fill-rule="evenodd" fill-opacity="0.501961"/><path d="M2891.7 3748.06 2875.2 3782.5 2840.75 3766 2857.25 3731.56Z" stroke="#595959" stroke-width="1.14583" stroke-miterlimit="8" stroke-opacity="0.94902" fill="#D2D2D2" fill-rule="evenodd" fill-opacity="0.501961"/><path d="M2692.53 3740.74 2721.44 3765.71 2696.47 3794.62 2667.56 3769.65Z" stroke="#595959" stroke-width="1.14583" stroke-miterlimit="8" fill="#D2D2D2" fill-rule="evenodd" fill-opacity="0.501961"/><path d="M2722.44 3766.58 2751.35 3791.55 2726.38 3820.46 2697.47 3795.49Z" stroke="#595959" stroke-width="1.14583" stroke-miterlimit="8" fill="#FFFFFF" fill-rule="evenodd" fill-opacity="0.501961"/><path d="M2661.84 3777.75 2690.75 3802.72 2665.78 3831.62 2636.87 3806.65Z" stroke="#595959" stroke-width="1.14583" stroke-miterlimit="8" stroke-opacity="0.94902" fill="#404040" fill-rule="evenodd" fill-opacity="0.901961"/><path d="M2691.75 3803.59 2720.66 3828.56 2695.69 3857.46 2666.78 3832.49Z" stroke="#595959" stroke-width="1.14583" stroke-miterlimit="8" stroke-opacity="0.94902" fill="#D2D2D2" fill-rule="evenodd" fill-opacity="0.501961"/><path d="M2482.27 3787.76C2483.77 3787.76 2484.86 3788.15 2485.52 3788.93 2486.19 3789.71 2486.52 3790.76 2486.52 3792.07 2486.52 3793.07 2486.34 3794.21 2485.99 3795.51 2485.64 3796.8 2485.14 3798.16 2484.49 3799.6 2483.84 3801.04 2483.07 3802.51 2482.18 3804.02 2481.28 3805.53 2480.29 3807 2479.21 3808.43 2478.13 3809.85 2476.97 3811.2 2475.74 3812.46 2474.51 3813.72 2473.24 3814.82 2471.91 3815.76 2470.59 3816.69 2469.25 3817.44 2467.88 3817.99 2466.52 3818.54 2465.16 3818.82 2463.8 3818.82 2463.2 3818.82 2462.69 3818.67 2462.29 3818.37 2461.88 3818.06 2461.55 3817.64 2461.3 3817.08 2461.05 3816.53 2460.88 3815.88 2460.77 3815.13 2460.67 3814.38 2460.62 3813.56 2460.62 3812.66 2460.62 3811.47 2460.69 3810.2 2460.83 3808.85 2460.98 3807.5 2461.17 3806.13 2461.4 3804.76L2462.71 3796.1C2462.79 3795.6 2462.86 3795.13 2462.91 3794.68 2462.96 3794.23 2462.99 3793.9 2462.99 3793.69 2462.99 3793.05 2462.89 3792.52 2462.68 3792.1 2462.47 3791.68 2462.12 3791.47 2461.62 3791.47 2461.22 3791.47 2460.79 3791.59 2460.33 3791.83 2459.88 3792.07 2459.41 3792.38 2458.94 3792.76 2458.48 3793.13 2458.02 3793.53 2457.58 3793.96 2457.15 3794.39 2456.74 3794.79 2456.37 3795.16L2454.87 3793.41C2455.51 3792.75 2456.2 3792.08 2456.93 3791.43 2457.66 3790.77 2458.43 3790.18 2459.24 3789.65 2460.05 3789.12 2460.91 3788.69 2461.8 3788.37 2462.7 3788.04 2463.62 3787.88 2464.55 3787.88 2465.34 3787.88 2465.99 3788.01 2466.49 3788.27 2466.99 3788.53 2467.38 3788.88 2467.66 3789.3 2467.94 3789.73 2468.14 3790.2 2468.24 3790.71 2468.34 3791.22 2468.4 3791.72 2468.4 3792.22 2468.4 3792.52 2468.39 3792.8 2468.37 3793.07 2468.34 3793.34 2468.31 3793.59 2468.27 3793.82L2466.52 3805.13C2466.33 3806.32 2466.18 3807.48 2466.05 3808.62 2465.93 3809.75 2465.87 3810.76 2465.87 3811.63 2465.87 3812.51 2465.92 3813.21 2466.02 3813.76 2466.13 3814.3 2466.32 3814.57 2466.62 3814.57 2467.3 3814.57 2468.17 3814.29 2469.21 3813.74 2470.25 3813.19 2471.34 3812.43 2472.49 3811.46 2473.64 3810.49 2474.78 3809.34 2475.93 3808.02 2477.07 3806.7 2478.11 3805.27 2479.02 3803.72 2479.94 3802.18 2480.68 3800.56 2481.26 3798.85 2481.83 3797.14 2482.12 3795.42 2482.12 3793.69 2482.12 3792.94 2481.95 3792.37 2481.63 3791.96 2481.31 3791.55 2480.8 3791.35 2480.12 3791.35 2479.24 3791.35 2478.43 3791.69 2477.69 3792.37 2476.95 3793.04 2476.19 3793.93 2475.4 3795.04L2473.62 3793.44C2474.12 3792.69 2474.7 3791.97 2475.38 3791.29 2476.06 3790.6 2476.78 3790 2477.54 3789.47 2478.3 3788.95 2479.08 3788.54 2479.9 3788.22 2480.71 3787.91 2481.5 3787.76 2482.27 3787.76Z" fill-rule="evenodd"/><text fill="#000000" fill-opacity="0" font-family="Arial,Arial_MSFontService,sans-serif" font-size="31.0625" x="2454.87" y="3814.94">𝑣</text><path d="M2498.02 3810.76 2499.15 3810.76 2495.75 3826.04C2495.54 3826.95 2495.39 3827.67 2495.3 3828.2 2495.22 3828.74 2495.18 3829.22 2495.18 3829.65 2495.18 3830.23 2495.3 3830.65 2495.53 3830.91 2495.77 3831.17 2496.13 3831.3 2496.6 3831.3 2496.88 3831.3 2497.15 3831.25 2497.43 3831.14 2497.7 3831.03 2498 3830.86 2498.31 3830.63 2498.62 3830.41 2498.97 3830.11 2499.34 3829.75 2499.72 3829.39 2500.13 3828.96 2500.59 3828.45L2502.15 3829.97C2501.36 3830.78 2500.64 3831.46 2499.99 3832.02 2499.34 3832.58 2498.72 3833.04 2498.14 3833.39 2497.56 3833.74 2496.99 3833.99 2496.43 3834.15 2495.87 3834.3 2495.28 3834.38 2494.65 3834.38 2494.07 3834.38 2493.54 3834.27 2493.08 3834.05 2492.61 3833.84 2492.21 3833.55 2491.87 3833.17 2491.54 3832.8 2491.28 3832.35 2491.09 3831.83 2490.91 3831.31 2490.82 3830.73 2490.82 3830.11 2490.82 3829.6 2490.88 3828.97 2491 3828.22 2491.12 3827.48 2491.28 3826.66 2491.47 3825.78 2491.66 3824.9 2491.87 3823.98 2492.1 3823.02 2492.33 3822.05 2492.56 3821.1 2492.78 3820.15 2493 3819.2 2493.2 3818.28 2493.38 3817.4 2493.55 3816.52 2493.68 3815.73 2493.75 3815.01 2493.79 3814.88 2493.8 3814.77 2493.8 3814.65 2493.8 3814.54 2493.8 3814.43 2493.8 3814.34 2493.77 3813.74 2493.56 3813.31 2493.17 3813.03 2492.78 3812.76 2492.09 3812.6 2491.09 3812.57L2491.37 3811.01ZM2496.69 3801.51 2501.28 3801.51 2500.16 3806.45 2495.61 3806.45Z" fill-rule="evenodd"/><text fill="#000000" fill-opacity="0" font-family="Arial,Arial_MSFontService,sans-serif" font-size="32.8633" x="2490.82" y="3830.27">𝑖</text><path d="M2499.21 3767.9 2505.13 3767.9 2505.13 3769.69 2497.49 3788.08 2494.8 3787.27Z" fill-rule="evenodd"/><text fill="#000000" fill-opacity="0" font-family="Arial,Arial_MSFontService,sans-serif" font-size="20.1724" x="2494.8" y="3785.56">′</text><path d="M949.81 3422.87 965.716 3422.87 965.247 3424.93C964.352 3425.02 963.701 3425.29 963.294 3425.76 962.888 3426.23 962.685 3426.84 962.685 3427.59 962.685 3428.22 962.799 3428.96 963.029 3429.82 963.258 3430.69 963.612 3431.73 964.091 3432.93L966.06 3438.12 970.247 3432.93C971.581 3431.27 972.508 3430.01 973.029 3429.17 973.549 3428.32 973.81 3427.62 973.81 3427.06 973.81 3426.35 973.633 3425.85 973.279 3425.54 972.924 3425.24 972.341 3425.04 971.529 3424.93L971.997 3422.87 984.997 3422.87 984.529 3424.97C984.029 3425.05 983.529 3425.25 983.029 3425.56 982.529 3425.87 981.846 3426.46 980.982 3427.31 980.117 3428.16 978.685 3429.76 976.685 3432.09L967.716 3442.5 973.247 3456.9C974.081 3459.09 974.826 3460.67 975.482 3461.64 976.138 3462.61 977.008 3463.22 978.091 3463.47L977.654 3465.53 961.716 3465.53 962.154 3463.47C963.799 3463.3 964.622 3462.55 964.622 3461.22 964.622 3460.47 964.529 3459.71 964.341 3458.93 964.154 3458.16 963.883 3457.31 963.529 3456.37L960.747 3449.03 954.279 3456.75C953.32 3457.89 952.643 3458.8 952.247 3459.47 951.852 3460.13 951.654 3460.79 951.654 3461.43 951.654 3462.68 952.424 3463.36 953.966 3463.47L953.529 3465.53 940.497 3465.53 940.935 3463.47C941.789 3463.24 942.638 3462.76 943.482 3462.03 944.326 3461.3 945.924 3459.59 948.279 3456.9L959.06 3444.72 954.279 3432.09C953.945 3431.24 953.544 3430.27 953.076 3429.18 952.607 3428.1 952.18 3427.27 951.794 3426.7 951.409 3426.13 951.034 3425.72 950.669 3425.47 950.305 3425.22 949.862 3425.04 949.341 3424.93Z" fill-rule="evenodd"/><text fill="#000000" fill-opacity="0" font-family="Arial,Arial_MSFontService,sans-serif" font-size="42.6562" x="940.497" y="3460.2">𝑿</text><path d="M995.709 3413.26 999.289 3413.26 997.981 3419.09 1005.78 3419.09 1005.26 3421.64 997.476 3421.64 995.136 3431.25C994.983 3431.9 994.856 3432.47 994.757 3432.99 994.658 3433.5 994.577 3433.96 994.516 3434.37 994.455 3434.79 994.413 3435.16 994.39 3435.5 994.367 3435.83 994.355 3436.15 994.355 3436.44 994.355 3437.36 994.547 3438.08 994.929 3438.6 995.312 3439.12 995.939 3439.38 996.811 3439.38 997.545 3439.38 998.326 3439.1 999.152 3438.56 999.978 3438.02 1000.92 3437.17 1001.97 3436L1003.56 3437.61C1002.78 3438.48 1002.04 3439.22 1001.33 3439.84 1000.63 3440.45 999.94 3440.95 999.266 3441.34 998.593 3441.73 997.928 3442.01 997.27 3442.19 996.612 3442.36 995.939 3442.45 995.25 3442.45 993.43 3442.45 992.072 3442.02 991.177 3441.17 990.282 3440.31 989.834 3439.05 989.834 3437.38 989.834 3436.81 989.876 3436.19 989.961 3435.51 990.045 3434.83 990.163 3434.17 990.316 3433.52L993.047 3421.64 989.1 3421.64 989.559 3419.87C990.477 3419.87 991.192 3419.78 991.705 3419.61 992.217 3419.43 992.649 3419.19 993.001 3418.88 993.231 3418.67 993.453 3418.4 993.667 3418.09 993.881 3417.78 994.095 3417.4 994.309 3416.96 994.524 3416.51 994.742 3415.99 994.964 3415.38 995.185 3414.78 995.434 3414.07 995.709 3413.26Z" fill-rule="evenodd"/><text fill="#000000" fill-opacity="0" font-family="Arial,Arial_MSFontService,sans-serif" font-size="29.1914" x="989.1" y="3438.8">𝑡</text><path d="M3470.79 3423.88 3486.69 3423.88 3486.22 3425.94C3485.33 3426.03 3484.68 3426.3 3484.27 3426.77 3483.86 3427.24 3483.66 3427.85 3483.66 3428.6 3483.66 3429.22 3483.78 3429.97 3484.01 3430.83 3484.23 3431.7 3484.59 3432.73 3485.07 3433.94L3487.04 3439.13 3491.22 3433.94C3492.56 3432.28 3493.48 3431.02 3494.01 3430.18 3494.53 3429.33 3494.79 3428.63 3494.79 3428.07 3494.79 3427.36 3494.61 3426.85 3494.26 3426.55 3493.9 3426.25 3493.32 3426.05 3492.51 3425.94L3492.97 3423.88 3505.97 3423.88 3505.51 3425.97C3505.01 3426.06 3504.51 3426.26 3504.01 3426.57 3503.51 3426.88 3502.82 3427.46 3501.96 3428.32 3501.09 3429.17 3499.66 3430.77 3497.66 3433.1L3488.69 3443.51 3494.22 3457.91C3495.06 3460.1 3495.8 3461.68 3496.46 3462.65 3497.11 3463.61 3497.98 3464.22 3499.07 3464.47L3498.63 3466.54 3482.69 3466.54 3483.13 3464.47C3484.78 3464.31 3485.6 3463.56 3485.6 3462.22 3485.6 3461.47 3485.51 3460.71 3485.32 3459.94 3485.13 3459.17 3484.86 3458.32 3484.51 3457.38L3481.72 3450.04 3475.26 3457.76C3474.3 3458.9 3473.62 3459.81 3473.22 3460.47 3472.83 3461.14 3472.63 3461.8 3472.63 3462.44 3472.63 3463.69 3473.4 3464.37 3474.94 3464.47L3474.51 3466.54 3461.47 3466.54 3461.91 3464.47C3462.77 3464.24 3463.61 3463.77 3464.46 3463.04 3465.3 3462.31 3466.9 3460.6 3469.26 3457.91L3480.04 3445.72 3475.26 3433.1C3474.92 3432.24 3474.52 3431.28 3474.05 3430.19 3473.58 3429.11 3473.16 3428.28 3472.77 3427.71 3472.39 3427.14 3472.01 3426.72 3471.65 3426.47 3471.28 3426.22 3470.84 3426.05 3470.32 3425.94Z" fill-rule="evenodd"/><text fill="#000000" fill-opacity="0" font-family="Arial,Arial_MSFontService,sans-serif" font-size="42.6562" x="3461.47" y="3461.2">𝑿</text><path d="M3516.69 3414.27 3520.27 3414.27 3518.96 3420.1 3526.76 3420.1 3526.23 3422.65 3518.45 3422.65 3516.11 3432.26C3515.96 3432.9 3515.83 3433.48 3515.73 3433.99 3515.63 3434.51 3515.55 3434.97 3515.49 3435.38 3515.43 3435.79 3515.39 3436.17 3515.37 3436.51 3515.34 3436.84 3515.33 3437.16 3515.33 3437.45 3515.33 3438.37 3515.52 3439.08 3515.91 3439.6 3516.29 3440.12 3516.92 3440.38 3517.79 3440.38 3518.52 3440.38 3519.3 3440.11 3520.13 3439.57 3520.95 3439.03 3521.9 3438.17 3522.95 3437.01L3524.53 3438.62C3523.75 3439.49 3523.01 3440.23 3522.31 3440.84 3521.6 3441.46 3520.92 3441.96 3520.24 3442.35 3519.57 3442.74 3518.9 3443.02 3518.25 3443.2 3517.59 3443.37 3516.92 3443.46 3516.23 3443.46 3514.41 3443.46 3513.05 3443.03 3512.15 3442.17 3511.26 3441.32 3510.81 3440.06 3510.81 3438.39 3510.81 3437.82 3510.85 3437.2 3510.94 3436.52 3511.02 3435.84 3511.14 3435.18 3511.29 3434.53L3514.02 3422.65 3510.08 3422.65 3510.54 3420.88C3511.45 3420.88 3512.17 3420.79 3512.68 3420.61 3513.19 3420.44 3513.63 3420.2 3513.98 3419.89 3514.21 3419.68 3514.43 3419.41 3514.64 3419.1 3514.86 3418.79 3515.07 3418.41 3515.29 3417.96 3515.5 3417.52 3515.72 3417 3515.94 3416.39 3516.16 3415.79 3516.41 3415.08 3516.69 3414.27Z" fill-rule="evenodd"/><text fill="#000000" fill-opacity="0" font-family="Arial,Arial_MSFontService,sans-serif" font-size="29.1914" x="3510.08" y="3439.81">𝑡</text><path d="M3543.94 3415.78 3547.66 3415.78 3547.66 3427.85 3559.02 3427.85 3559.02 3431.37 3547.66 3431.37 3547.66 3443.44 3543.94 3443.44 3543.94 3431.37 3532.58 3431.37 3532.58 3427.85 3543.94 3427.85Z" fill-rule="evenodd"/><text fill="#000000" fill-opacity="0" font-family="Arial,Arial_MSFontService,sans-serif" font-size="27.6538" x="3532.58" y="3439.98">+</text><path d="M3578 3413.49 3579.4 3413.49C3579.37 3414.33 3579.34 3415.08 3579.33 3415.75 3579.31 3416.41 3579.3 3417.06 3579.29 3417.69 3579.29 3418.32 3579.28 3418.93 3579.28 3419.55L3579.28 3436.99C3579.28 3437.46 3579.3 3437.87 3579.33 3438.22 3579.36 3438.56 3579.41 3438.85 3579.48 3439.09 3579.55 3439.33 3579.64 3439.53 3579.75 3439.7 3579.87 3439.86 3580 3440.01 3580.15 3440.13 3580.34 3440.32 3580.58 3440.46 3580.89 3440.56 3581.19 3440.66 3581.58 3440.74 3582.06 3440.81 3582.53 3440.88 3583.1 3440.93 3583.77 3440.97 3584.43 3441.01 3585.23 3441.03 3586.17 3441.05L3586.17 3443.05 3567.97 3443.05 3567.97 3441.05C3568.87 3441.02 3569.64 3440.99 3570.26 3440.95 3570.89 3440.91 3571.43 3440.86 3571.87 3440.79 3572.31 3440.72 3572.67 3440.64 3572.94 3440.56 3573.2 3440.47 3573.44 3440.37 3573.64 3440.25 3573.85 3440.11 3574.03 3439.96 3574.19 3439.8 3574.34 3439.64 3574.46 3439.44 3574.55 3439.19 3574.65 3438.95 3574.72 3438.65 3574.77 3438.3 3574.83 3437.94 3574.85 3437.51 3574.85 3436.99L3574.85 3420.53C3574.85 3419.94 3574.74 3419.52 3574.51 3419.27 3574.28 3419.03 3573.95 3418.9 3573.52 3418.9 3573.05 3418.9 3572.34 3419.15 3571.41 3419.64 3570.48 3420.13 3569.27 3420.85 3567.78 3421.82 3567.58 3421.47 3567.4 3421.11 3567.23 3420.76 3567.06 3420.41 3566.89 3420.05 3566.71 3419.68 3568.6 3418.64 3570.48 3417.61 3572.34 3416.57 3574.2 3415.54 3576.08 3414.51 3578 3413.49Z" fill-rule="evenodd"/><text fill="#000000" fill-opacity="0" font-family="Arial,Arial_MSFontService,sans-serif" font-size="29.5586" x="3566.71" y="3439.35">1</text><path d="M1623.23 3405.92C1625.21 3405.92 1627.02 3406.04 1628.67 3406.28 1630.31 3406.52 1632.12 3406.96 1634.08 3407.58L1632.17 3415.99 1629.17 3415.99C1628.98 3413.38 1628.41 3411.51 1627.45 3410.38 1626.49 3409.24 1624.93 3408.67 1622.76 3408.67 1621.01 3408.67 1619.38 3409.12 1617.86 3410.02 1616.34 3410.91 1614.89 3412.25 1613.53 3414.03 1612.16 3415.81 1610.93 3418.06 1609.84 3420.77 1608.75 3423.48 1607.9 3426.3 1607.29 3429.24 1606.69 3432.17 1606.39 3434.93 1606.39 3437.52 1606.39 3440.77 1606.95 3443.14 1608.06 3444.63 1609.17 3446.12 1610.92 3446.86 1613.29 3446.86 1614.15 3446.86 1615.02 3446.76 1615.92 3446.56 1616.81 3446.37 1617.65 3446.03 1618.43 3445.55 1619.22 3445.07 1619.91 3444.42 1620.51 3443.61 1621.12 3442.8 1621.55 3441.78 1621.83 3440.55L1622.17 3439.08C1622.63 3437.12 1622.86 3435.44 1622.86 3434.05 1622.86 3433.07 1622.61 3432.39 1622.12 3432 1621.63 3431.62 1620.86 3431.39 1619.79 3431.33L1620.14 3429.8 1632.64 3429.8 1632.29 3431.33C1631.5 3431.5 1630.93 3431.68 1630.58 3431.89 1630.22 3432.1 1629.9 3432.42 1629.62 3432.85 1629.34 3433.27 1629.06 3433.92 1628.79 3434.8 1628.52 3435.67 1628.17 3437.11 1627.73 3439.11L1625.58 3448.92 1623.11 3449.61 1621.48 3447.14C1619.31 3448.16 1617.61 3448.82 1616.36 3449.13 1615.11 3449.43 1613.84 3449.58 1612.54 3449.58 1608.63 3449.58 1605.65 3448.46 1603.61 3446.21 1601.56 3443.96 1600.54 3440.66 1600.54 3436.33 1600.54 3433.23 1601.06 3429.74 1602.11 3425.88 1603.15 3422.01 1604.66 3418.56 1606.65 3415.52 1608.64 3412.48 1611.05 3410.12 1613.87 3408.44 1616.7 3406.76 1619.81 3405.92 1623.23 3405.92Z" fill-rule="evenodd"/><text fill="#000000" fill-opacity="0" font-family="Arial,Arial_MSFontService,sans-serif" font-size="43.6875" x="1600.54" y="3444.15">𝐺</text><path d="M1662.31 3435.21 1700.81 3435.21 1700.81 3439.36 1662.31 3439.36ZM1662.31 3422.24 1700.81 3422.24 1700.81 3426.39 1662.31 3426.39Z" fill-rule="evenodd"/><text fill="#000000" fill-opacity="0" font-family="Arial,Arial_MSFontService,sans-serif" font-size="17.125" x="1662.31" y="3437.22">=</text><path d="M1748.14 3403.92 1748.98 3406.33C1744.1 3407.93 1740.5 3411.06 1738.15 3415.72 1735.81 3420.38 1734.64 3426.23 1734.64 3433.27 1734.64 3440.56 1735.81 3446.57 1738.15 3451.3 1740.5 3456.03 1744.07 3459.19 1748.89 3460.8L1748.14 3463.21C1742.03 3461.6 1737.35 3458.15 1734.1 3452.85 1730.85 3447.54 1729.23 3441.12 1729.23 3433.58 1729.23 3426.06 1730.86 3419.64 1734.12 3414.31 1737.38 3408.99 1742.05 3405.53 1748.14 3403.92Z" fill-rule="evenodd"/><text fill="#000000" fill-opacity="0" font-family="Arial,Arial_MSFontService,sans-serif" font-size="59.2812" x="1729.23" y="3455.79">(</text><path d="M1753.4 3406.42 1769.55 3406.42 1769.08 3408.49C1768.17 3408.55 1767.45 3408.78 1766.94 3409.17 1766.43 3409.57 1766.07 3410.1 1765.85 3410.77 1765.63 3411.43 1765.52 3412.43 1765.52 3413.77L1765.52 3415.11C1765.52 3415.57 1765.53 3416.06 1765.55 3416.58L1765.77 3427.55C1765.85 3431.74 1765.9 3435.56 1765.9 3439.02L1766.27 3439.02 1776.36 3420.08C1777.99 3417.04 1778.98 3414.99 1779.35 3413.94 1779.71 3412.89 1779.9 3411.93 1779.9 3411.08 1779.9 3409.58 1779.01 3408.72 1777.24 3408.49L1777.71 3406.42 1791.02 3406.42 1790.55 3408.49C1789.8 3408.65 1789.15 3408.94 1788.6 3409.35 1788.05 3409.75 1787.53 3410.28 1787.05 3410.94 1786.57 3411.6 1785.86 3412.76 1784.93 3414.42L1765.52 3449.3 1757.68 3449.3 1756.33 3415.89C1756.29 3414.71 1756.21 3413.64 1756.08 3412.69 1755.96 3411.74 1755.76 3410.97 1755.49 3410.36 1755.22 3409.76 1754.88 3409.31 1754.47 3409.03 1754.07 3408.75 1753.55 3408.57 1752.93 3408.49Z" fill-rule="evenodd"/><text fill="#000000" fill-opacity="0" font-family="Arial,Arial_MSFontService,sans-serif" font-size="42.875" x="1752.93" y="3443.94">𝑽</text><path d="M1795.97 3441.83 1801.44 3441.83C1801.73 3443.29 1801.88 3444.73 1801.88 3446.14 1801.88 3447.6 1801.63 3448.93 1801.13 3450.14 1800.63 3451.35 1799.83 3452.55 1798.73 3453.75 1797.64 3454.95 1796.14 3456.27 1794.22 3457.71L1792.53 3455.8C1793.59 3454.8 1794.36 3453.9 1794.84 3453.1 1795.32 3452.29 1795.67 3451.38 1795.88 3450.36 1796.08 3449.34 1796.19 3448.06 1796.19 3446.52 1796.19 3444.93 1796.11 3443.37 1795.97 3441.83Z" fill-rule="evenodd"/><text fill="#000000" fill-opacity="0" font-family="Arial,Arial_MSFontService,sans-serif" font-size="15.875" x="1792.53" y="3455.72">,</text><path d="M1826.04 3406.42 1856.38 3406.42 1854.16 3416.49 1850.16 3416.49C1850.06 3414.51 1849.87 3413.12 1849.6 3412.33 1849.33 3411.54 1848.91 3410.97 1848.35 3410.61 1847.79 3410.26 1846.99 3410.08 1845.97 3410.08L1838.13 3410.08 1834.82 3425.08 1839.16 3425.08C1839.99 3425.08 1840.7 3424.94 1841.27 3424.67 1841.84 3424.4 1842.37 3423.95 1842.86 3423.31 1843.35 3422.68 1843.84 3421.8 1844.32 3420.67L1847.75 3420.67 1844.75 3433.36 1841.54 3433.36C1841.54 3432.15 1841.46 3431.23 1841.32 3430.58 1841.17 3429.93 1840.9 3429.47 1840.5 3429.17 1840.11 3428.88 1839.43 3428.74 1838.47 3428.74L1834.04 3428.74 1830.35 3445.42 1837.38 3445.42C1838.3 3445.42 1839.01 3445.36 1839.52 3445.24 1840.03 3445.11 1840.5 3444.91 1840.93 3444.64 1841.35 3444.37 1841.85 3443.94 1842.41 3443.35 1842.97 3442.75 1843.53 3442 1844.08 3441.1 1844.63 3440.19 1845.2 3439.1 1845.79 3437.83L1850.04 3437.83 1847.16 3449.08 1817.44 3449.08 1817.88 3447.02C1819.07 3446.68 1819.94 3446.1 1820.5 3445.27 1821.07 3444.43 1821.6 3442.89 1822.1 3440.64L1827.79 3414.86C1828.06 3413.63 1828.19 3412.41 1828.19 3411.21 1828.19 3410.33 1827.99 3409.69 1827.58 3409.28 1827.18 3408.88 1826.51 3408.61 1825.6 3408.49Z" fill-rule="evenodd"/><text fill="#000000" fill-opacity="0" font-family="Arial,Arial_MSFontService,sans-serif" font-size="42.6562" x="1817.44" y="3443.75">𝑬</text><path d="M1859.51 3403.92C1865.6 3405.53 1870.27 3408.99 1873.53 3414.31 1876.79 3419.64 1878.42 3426.06 1878.42 3433.58 1878.42 3441.12 1876.8 3447.54 1873.55 3452.85 1870.3 3458.15 1865.62 3461.6 1859.51 3463.21L1858.76 3460.8C1863.58 3459.19 1867.16 3456.03 1869.5 3451.3 1871.84 3446.57 1873.01 3440.56 1873.01 3433.27 1873.01 3426.23 1871.85 3420.38 1869.51 3415.72 1867.18 3411.06 1863.57 3407.93 1858.67 3406.33Z" fill-rule="evenodd"/><text fill="#000000" fill-opacity="0" font-family="Arial,Arial_MSFontService,sans-serif" font-size="59.2812" x="1858.67" y="3455.79">)</text><path d="M2607.27 3405.76C2609.25 3405.76 2611.06 3405.88 2612.71 3406.12 2614.35 3406.36 2616.16 3406.79 2618.11 3407.42L2616.21 3415.82 2613.21 3415.82C2613.02 3413.22 2612.45 3411.35 2611.49 3410.21 2610.53 3409.08 2608.97 3408.51 2606.8 3408.51 2605.05 3408.51 2603.42 3408.96 2601.89 3409.85 2600.37 3410.75 2598.93 3412.09 2597.57 3413.87 2596.2 3415.65 2594.97 3417.9 2593.88 3420.6 2592.79 3423.31 2591.94 3426.14 2591.33 3429.07 2590.73 3432.01 2590.43 3434.77 2590.43 3437.35 2590.43 3440.6 2590.98 3442.97 2592.1 3444.46 2593.21 3445.95 2594.96 3446.7 2597.33 3446.7 2598.19 3446.7 2599.06 3446.6 2599.96 3446.4 2600.85 3446.2 2601.69 3445.87 2602.47 3445.39 2603.25 3444.91 2603.95 3444.26 2604.55 3443.45 2605.16 3442.64 2605.59 3441.62 2605.86 3440.39L2606.21 3438.92C2606.67 3436.96 2606.89 3435.28 2606.89 3433.89 2606.89 3432.91 2606.65 3432.22 2606.16 3431.84 2605.67 3431.45 2604.89 3431.23 2603.83 3431.17L2604.18 3429.64 2616.68 3429.64 2616.33 3431.17C2615.54 3431.33 2614.97 3431.52 2614.61 3431.73 2614.26 3431.94 2613.94 3432.26 2613.66 3432.68 2613.38 3433.11 2613.1 3433.76 2612.83 3434.64 2612.56 3435.51 2612.21 3436.95 2611.77 3438.95L2609.61 3448.76 2607.14 3449.45 2605.52 3446.98C2603.35 3448 2601.64 3448.66 2600.39 3448.96 2599.14 3449.27 2597.87 3449.42 2596.58 3449.42 2592.67 3449.42 2589.69 3448.29 2587.64 3446.04 2585.6 3443.79 2584.58 3440.5 2584.58 3436.17 2584.58 3433.06 2585.1 3429.58 2586.14 3425.71 2587.19 3421.85 2588.7 3418.4 2590.69 3415.35 2592.68 3412.31 2595.09 3409.95 2597.91 3408.28 2600.73 3406.6 2603.85 3405.76 2607.27 3405.76Z" fill-rule="evenodd"/><text fill="#000000" fill-opacity="0" font-family="Arial,Arial_MSFontService,sans-serif" font-size="43.6875" x="2584.58" y="3443.99">𝐺</text><path d="M2632.78 3401.1 2638.71 3401.1 2638.71 3402.89 2631.06 3421.27 2628.38 3420.47Z" fill-rule="evenodd"/><text fill="#000000" fill-opacity="0" font-family="Arial,Arial_MSFontService,sans-serif" font-size="20.1724" x="2628.38" y="3418.75">′</text><path d="M2666.72 3435.04 2705.22 3435.04 2705.22 3439.2 2666.72 3439.2ZM2666.72 3422.07 2705.22 3422.07 2705.22 3426.23 2666.72 3426.23Z" fill-rule="evenodd"/><text fill="#000000" fill-opacity="0" font-family="Arial,Arial_MSFontService,sans-serif" font-size="17.125" x="2666.72" y="3437.06">=</text><path d="M2752.55 3403.76 2753.39 3406.17C2748.52 3407.77 2744.91 3410.9 2742.56 3415.56 2740.22 3420.21 2739.05 3426.06 2739.05 3433.1 2739.05 3440.4 2740.22 3446.41 2742.56 3451.14 2744.91 3455.87 2748.48 3459.03 2753.3 3460.64L2752.55 3463.04C2746.44 3461.44 2741.77 3457.99 2738.52 3452.68 2735.27 3447.38 2733.64 3440.96 2733.64 3433.42 2733.64 3425.9 2735.27 3419.47 2738.53 3414.15 2741.79 3408.83 2746.46 3405.37 2752.55 3403.76Z" fill-rule="evenodd"/><text fill="#000000" fill-opacity="0" font-family="Arial,Arial_MSFontService,sans-serif" font-size="59.2812" x="2733.64" y="3455.63">(</text><path d="M2757.81 3406.26 2773.96 3406.26 2773.49 3408.32C2772.58 3408.39 2771.86 3408.62 2771.35 3409.01 2770.84 3409.41 2770.48 3409.94 2770.26 3410.6 2770.04 3411.27 2769.93 3412.27 2769.93 3413.6L2769.93 3414.95C2769.93 3415.41 2769.94 3415.9 2769.96 3416.42L2770.18 3427.39C2770.27 3431.57 2770.31 3435.4 2770.31 3438.85L2770.68 3438.85 2780.78 3419.92C2782.4 3416.88 2783.4 3414.83 2783.76 3413.78 2784.12 3412.72 2784.31 3411.77 2784.31 3410.92 2784.31 3409.42 2783.42 3408.55 2781.65 3408.32L2782.12 3406.26 2795.43 3406.26 2794.96 3408.32C2794.21 3408.49 2793.56 3408.78 2793.01 3409.18 2792.46 3409.59 2791.94 3410.12 2791.46 3410.78 2790.98 3411.43 2790.28 3412.59 2789.34 3414.26L2769.93 3449.14 2762.09 3449.14 2760.74 3415.73C2760.7 3414.54 2760.62 3413.47 2760.49 3412.53 2760.37 3411.58 2760.17 3410.8 2759.9 3410.2 2759.63 3409.59 2759.29 3409.15 2758.89 3408.87 2758.48 3408.59 2757.96 3408.41 2757.34 3408.32Z" fill-rule="evenodd"/><text fill="#000000" fill-opacity="0" font-family="Arial,Arial_MSFontService,sans-serif" font-size="42.875" x="2757.34" y="3443.78">𝑽</text><path d="M2804.02 3401.1 2809.94 3401.1 2809.94 3402.89 2802.3 3421.27 2799.61 3420.47Z" fill-rule="evenodd"/><text fill="#000000" fill-opacity="0" font-family="Arial,Arial_MSFontService,sans-serif" font-size="20.1724" x="2799.61" y="3418.75">′</text><path d="M2819.65 3441.67 2825.12 3441.67C2825.41 3443.13 2825.56 3444.56 2825.56 3445.98 2825.56 3447.44 2825.31 3448.77 2824.81 3449.98 2824.31 3451.19 2823.51 3452.39 2822.42 3453.59 2821.32 3454.79 2819.82 3456.1 2817.9 3457.54L2816.22 3455.64C2817.28 3454.64 2818.05 3453.74 2818.53 3452.93 2819.01 3452.13 2819.35 3451.22 2819.56 3450.2 2819.77 3449.18 2819.87 3447.9 2819.87 3446.35 2819.87 3444.77 2819.8 3443.21 2819.65 3441.67Z" fill-rule="evenodd"/><text fill="#000000" fill-opacity="0" font-family="Arial,Arial_MSFontService,sans-serif" font-size="15.875" x="2816.22" y="3455.56">,</text><path d="M2849.72 3406.26 2880.06 3406.26 2877.84 3416.32 2873.84 3416.32C2873.74 3414.34 2873.55 3412.96 2873.28 3412.17 2873.01 3411.38 2872.59 3410.8 2872.03 3410.45 2871.47 3410.09 2870.68 3409.92 2869.66 3409.92L2861.81 3409.92 2858.5 3424.92 2862.84 3424.92C2863.68 3424.92 2864.38 3424.78 2864.95 3424.51 2865.53 3424.24 2866.06 3423.79 2866.55 3423.15 2867.04 3422.52 2867.52 3421.64 2868 3420.51L2871.44 3420.51 2868.44 3433.2 2865.22 3433.2C2865.22 3431.99 2865.15 3431.06 2865 3430.42 2864.85 3429.77 2864.58 3429.3 2864.19 3429.01 2863.79 3428.72 2863.12 3428.57 2862.16 3428.57L2857.72 3428.57 2854.03 3445.26 2861.06 3445.26C2861.98 3445.26 2862.69 3445.2 2863.2 3445.07 2863.71 3444.95 2864.18 3444.75 2864.61 3444.48 2865.04 3444.21 2865.53 3443.78 2866.09 3443.18 2866.66 3442.59 2867.21 3441.84 2867.77 3440.93 2868.32 3440.03 2868.89 3438.94 2869.47 3437.67L2873.72 3437.67 2870.84 3448.92 2841.13 3448.92 2841.56 3446.85C2842.75 3446.52 2843.63 3445.94 2844.19 3445.1 2844.75 3444.27 2845.28 3442.73 2845.78 3440.48L2851.47 3414.7C2851.74 3413.47 2851.88 3412.25 2851.88 3411.04 2851.88 3410.17 2851.67 3409.53 2851.27 3409.12 2850.86 3408.71 2850.2 3408.45 2849.28 3408.32Z" fill-rule="evenodd"/><text fill="#000000" fill-opacity="0" font-family="Arial,Arial_MSFontService,sans-serif" font-size="42.6562" x="2841.13" y="3443.59">𝑬</text><path d="M2888.99 3401.1 2894.91 3401.1 2894.91 3402.89 2887.27 3421.27 2884.59 3420.47Z" fill-rule="evenodd"/><text fill="#000000" fill-opacity="0" font-family="Arial,Arial_MSFontService,sans-serif" font-size="20.1724" x="2884.59" y="3418.75">′</text><path d="M2902.47 3403.76C2908.55 3405.37 2913.23 3408.83 2916.49 3414.15 2919.75 3419.47 2921.38 3425.9 2921.38 3433.42 2921.38 3440.96 2919.75 3447.38 2916.5 3452.68 2913.25 3457.99 2908.58 3461.44 2902.47 3463.04L2901.72 3460.64C2906.53 3459.03 2910.11 3455.87 2912.46 3451.14 2914.8 3446.41 2915.97 3440.4 2915.97 3433.1 2915.97 3426.06 2914.8 3420.21 2912.47 3415.56 2910.14 3410.9 2906.52 3407.77 2901.63 3406.17Z" fill-rule="evenodd"/><text fill="#000000" fill-opacity="0" font-family="Arial,Arial_MSFontService,sans-serif" font-size="59.2812" x="2901.63" y="3455.63">)</text><text font-family="Calibri,Calibri_MSFontService,sans-serif" font-weight="700" font-size="64" transform="matrix(1 0 0 1 1940.85 3353)">Graph Neural Network</text><text font-family="Calibri,Calibri_MSFontService,sans-serif" font-weight="400" font-size="64" transform="matrix(1 0 0 1 3083.85 3742)">Decode</text><text font-family="Calibri,Calibri_MSFontService,sans-serif" font-weight="400" font-size="64" transform="matrix(1 0 0 1 2103.06 3765)">Message </text><text font-family="Calibri,Calibri_MSFontService,sans-serif" font-weight="400" font-size="64" transform="matrix(1 0 0 1 2121.12 3842)">passing</text></g></svg>